<svg width="705" height="303" viewBox="0 0 705 303" fill="none" xmlns="http://www.w3.org/2000/svg">
<path d="M704.385 0H655.347V301.728H704.385V0Z" fill="#9F9F9F" stroke="black" stroke-width="0.5" stroke-miterlimit="10"/>
<path d="M649.903 26.3108H600.865V301.728H649.903V26.3108Z" fill="#9F9F9F" stroke="black" stroke-width="0.5" stroke-miterlimit="10"/>
<path d="M595.414 50.2896H546.375V301.728H595.414V50.2896Z" fill="#9F9F9F" stroke="black" stroke-width="0.5" stroke-miterlimit="10"/>
<path d="M540.931 69.6045H491.893V301.728H540.931V69.6045Z" fill="#9F9F9F" stroke="black" stroke-width="0.5" stroke-miterlimit="10"/>
<path d="M486.442 86.4233H437.404V301.728H486.442V86.4233Z" fill="#9F9F9F" stroke="black" stroke-width="0.5" stroke-miterlimit="10"/>
<path d="M431.953 103.238H382.915V301.728H431.953V103.238Z" fill="#9F9F9F" stroke="black" stroke-width="0.5" stroke-miterlimit="10"/>
<path d="M377.471 115.73H328.432V301.728H377.471V115.73Z" fill="#9F9F9F" stroke="black" stroke-width="0.5" stroke-miterlimit="10"/>
<path d="M322.982 126.717H273.943V301.728H322.982V126.717Z" fill="#9F9F9F" stroke="black" stroke-width="0.5" stroke-miterlimit="10"/>
<path d="M268.493 137.877H219.454V301.728H268.493V137.877Z" fill="#9F9F9F" stroke="black" stroke-width="0.5" stroke-miterlimit="10"/>
<path d="M214.01 146.868H164.972V301.728H214.01V146.868Z" fill="#9F9F9F" stroke="black" stroke-width="0.5" stroke-miterlimit="10"/>
<path d="M159.521 156.86H110.483V301.728H159.521V156.86Z" fill="#9F9F9F" stroke="black" stroke-width="0.5" stroke-miterlimit="10"/>
<path d="M105.038 166.015H56V301.728H105.038V166.015Z" fill="#9F9F9F" stroke="black" stroke-width="0.5" stroke-miterlimit="10"/>
<path d="M49.0382 176H0V302.717H49.0382V176Z" fill="#9F9F9F" stroke="black" stroke-width="0.5" stroke-miterlimit="10"/>
</svg>
